<svg width="156" height="209" viewBox="0 0 312 418" fill="none" xmlns="http://www.w3.org/2000/svg">
<path fill-rule="evenodd" clip-rule="evenodd" d="M277 0C277 10.4934 268.493 19 258 19C247.507 19 239 10.4934 239 0H209C209 10.4934 200.493 19 190 19C179.507 19 171 10.4934 171 0H141C141 10.4934 132.493 19 122 19C111.507 19 103 10.4934 103 0H73C73 10.4934 64.4934 19 54 19C43.5066 19 35 10.4934 35 0H10C4.47715 0 0 4.47716 0 10V20C10.4934 20 19 28.5066 19 39C19 49.4934 10.4934 58 0 58V88C10.4934 88 19 96.5066 19 107C19 117.493 10.4934 126 0 126V156C10.4934 156 19 164.507 19 175C19 185.493 10.4934 194 0 194V224C10.4934 224 19 232.507 19 243C19 253.493 10.4934 262 0 262V292C10.4934 292 19 300.507 19 311C19 321.493 10.4934 330 0 330V360C10.4934 360 19 368.507 19 379C19 389.493 10.4934 398 0 398V408C0 413.523 4.47715 418 9.99999 418H35C35 407.507 43.5066 399 54 399C64.4934 399 73 407.507 73 418H103C103 407.507 111.507 399 122 399C132.493 399 141 407.507 141 418H171C171 407.507 179.507 399 190 399C200.493 399 209 407.507 209 418H239C239 407.507 247.507 399 258 399C268.493 399 277 407.507 277 418H302C307.523 418 312 413.523 312 408V398C301.507 398 293 389.493 293 379C293 368.507 301.507 360 312 360V330C301.507 330 293 321.493 293 311C293 300.507 301.507 292 312 292V262C301.507 262 293 253.493 293 243C293 232.507 301.507 224 312 224V194C301.507 194 293 185.493 293 175C293 164.507 301.507 156 312 156V126C301.507 126 293 117.493 293 107C293 96.5066 301.507 88 312 88V58C301.507 58 293 49.4934 293 39C293 28.5066 301.507 20 312 20V10C312 4.47715 307.523 0 302 0H277Z" fill="#F6F9FF"/>
</svg>
